<?xml version="1.0" standalone="no"?>
<!DOCTYPE svg PUBLIC "-//W3C//DTD SVG 20010904//EN"
 "http://www.w3.org/TR/2001/REC-SVG-20010904/DTD/svg10.dtd">
<svg version="1.0" xmlns="http://www.w3.org/2000/svg"
 width="460.000000pt" height="486.000000pt" viewBox="0 0 460.000000 486.000000"
 preserveAspectRatio="xMidYMid meet">
<metadata>
Created by potrace 1.16, written by Peter Selinger 2001-2019
</metadata>
<g transform="translate(0.000000,486.000000) scale(0.100000,-0.100000)"
fill="#000000" stroke="none">
<path d="M0 2430 l0 -2430 2300 0 2300 0 0 2430 0 2430 -2300 0 -2300 0 0
-2430z m4364 2382 c75 -34 129 -84 167 -154 l34 -63 0 -2165 0 -2165 -34 -63
c-38 -70 -92 -120 -167 -154 l-49 -23 -2015 0 -2015 0 -49 23 c-75 34 -129 84
-167 154 l-34 63 0 2165 0 2165 34 63 c49 90 131 153 224 172 23 4 938 7 2032
6 l1990 -1 49 -23z"/>
<path d="M489 4492 c-60 -31 -113 -93 -129 -150 -6 -25 -10 -513 -10 -1469 0
-1420 0 -1433 21 -1487 27 -73 96 -148 167 -183 l57 -28 1705 0 1705 0 57 28
c71 35 140 110 167 183 21 54 21 67 21 1487 0 956 -4 1444 -10 1469 -16 57
-69 119 -129 150 l-53 28 -1758 0 -1758 0 -53 -28z m3589 -41 c48 -25 87 -66
106 -113 14 -33 16 -196 16 -1459 0 -1028 -3 -1432 -11 -1459 -19 -64 -78
-131 -144 -165 l-59 -30 -1686 0 -1686 0 -59 30 c-66 34 -125 101 -144 165 -8
27 -11 431 -11 1461 0 1365 1 1426 19 1464 20 44 59 84 106 108 27 15 205 16
1773 17 1696 0 1744 -1 1780 -19z"/>
<path d="M645 4311 c-11 -2 -30 -10 -43 -19 -55 -36 -52 42 -52 -1439 0 -1339
0 -1369 20 -1400 41 -68 -94 -63 1733 -63 l1654 0 34 23 c18 12 39 34 46 47
10 20 13 319 13 1395 0 1339 -1 1371 -20 1402 -10 17 -28 37 -39 42 -14 8
-523 12 -1674 14 -909 1 -1662 0 -1672 -2z m1745 -704 l0 -524 31 -61 c17 -34
47 -75 67 -92 36 -29 112 -70 132 -70 6 0 10 104 10 298 l0 299 23 21 c49 46
133 54 229 21 80 -26 158 -81 239 -165 60 -63 149 -176 149 -189 0 -3 -72 -5
-160 -5 l-160 0 0 125 c0 106 -2 125 -15 125 -47 0 -127 -74 -169 -157 -47
-95 -96 -298 -111 -465 -7 -76 -8 -78 -34 -78 -47 0 -207 85 -266 141 l-55 51
-57 -52 c-37 -34 -92 -69 -151 -98 -86 -41 -94 -43 -115 -29 -65 45 -178 173
-249 283 -68 106 -82 130 -148 264 l-63 124 39 34 c54 48 168 100 234 108 64
7 127 -7 158 -36 22 -21 22 -24 22 -320 0 -196 4 -300 10 -300 27 0 110 49
150 90 81 81 80 72 80 663 l0 517 90 0 90 0 0 -523z m-851 -410 c107 -215 247
-411 367 -513 l54 -46 0 -127 c0 -173 -20 -381 -46 -472 -3 -10 -20 -20 -42
-24 -94 -18 -214 -84 -328 -182 l-69 -60 0 256 0 256 -243 3 -243 2 7 38 c12
67 73 269 110 369 85 228 192 423 317 576 21 26 42 47 47 47 4 0 35 -55 69
-123z m1564 -115 l208 -2 20 -33 c37 -58 126 -250 163 -348 92 -251 148 -502
149 -675 1 -104 -1 -125 -18 -150 -23 -34 -23 -34 -27 86 l-3 75 -322 -4
c-268 -3 -323 -1 -323 10 -1 8 -2 64 -3 124 l-2 110 -146 3 -146 3 -7 46 c-3
25 -6 106 -6 179 l0 134 29 0 c28 0 30 3 35 43 38 328 83 497 159 593 l22 29
5 -110 5 -110 208 -3z m-1681 -1164 l3 -312 29 44 c87 131 278 274 409 306
l28 6 -21 -51 c-64 -162 -198 -285 -357 -326 -65 -17 -197 -19 -262 -4 -228
52 -327 253 -288 582 l9 67 224 0 224 0 2 -312z m1468 182 l0 -120 325 0 325
0 0 -150 0 -150 -46 -33 c-25 -17 -67 -40 -92 -51 -60 -24 -216 -33 -295 -16
-172 35 -316 168 -386 355 -17 45 -21 79 -21 170 l0 115 95 0 95 0 0 -120z"/>
<path d="M2205 928 c-89 -33 -164 -114 -191 -205 -54 -185 91 -373 286 -373
166 0 295 130 294 295 -1 116 -60 214 -161 265 -55 28 -176 38 -228 18z"/>
<path d="M754 767 c-2 -7 -3 -67 -2 -133 l3 -119 149 -3 c101 -2 153 1 162 9
18 15 20 229 2 247 -18 18 -307 17 -314 -1z"/>
<path d="M1284 767 c-2 -7 -3 -67 -2 -133 l3 -119 160 0 160 0 0 130 0 130
-158 3 c-124 2 -159 0 -163 -11z"/>
<path d="M2994 767 c-2 -7 -3 -67 -2 -133 l3 -119 160 0 160 0 0 130 0 130
-158 3 c-124 2 -159 0 -163 -11z"/>
<path d="M3544 767 c-2 -7 -3 -67 -2 -133 l3 -119 149 -3 c101 -2 153 1 162 9
18 15 20 229 2 247 -18 18 -307 17 -314 -1z"/>
</g>
</svg>
